<svg width="31" height="33" viewBox="0 0 31 33" fill="none" xmlns="http://www.w3.org/2000/svg">
<path d="M16.5751 28.3576C15.9301 28.8593 15.0163 28.8593 14.3713 28.3576L3.35259 19.7935C2.70759 19.2918 1.81176 19.2918 1.16676 19.7935C0.253008 20.5101 0.253008 21.8897 1.16676 22.6064L13.2784 32.0306C14.5684 33.0339 16.378 33.0339 17.6859 32.0306L29.7976 22.6064C30.7113 21.8897 30.7113 20.5101 29.7976 19.7935L29.7797 19.7756C29.1347 19.2739 28.2388 19.2739 27.5938 19.7756L16.5751 28.3576ZM17.7038 22.9468L29.8155 13.5226C30.7293 12.806 30.7293 11.4085 29.8155 10.6918L17.7038 1.26764C16.4138 0.264303 14.6043 0.264303 13.2963 1.26764L1.18467 10.7097C0.270925 11.4264 0.270925 12.8239 1.18467 13.5406L13.2963 22.9647C14.5863 23.9681 16.4138 23.9681 17.7038 22.9468Z" fill="#8A8A8A"/>
</svg>
